<svg width="390" height="844" xmlns="http://www.w3.org/2000/svg" font-family="system-ui, sans-serif">
  <rect width="390" height="844" fill="#F9FAFB"/>
  <rect x="0" y="0" width="390" height="44" fill="#1E293B"/>
  <text x="24" y="28" fill="#FFFFFF" font-size="14">&#8249; Terug</text>
  <text x="195" y="28" text-anchor="middle" fill="#FFFFFF" font-size="14" font-weight="600">Dossier 2026</text>
  <rect x="0" y="44" width="390" height="80" fill="#1E3A5F"/>
  <text x="24" y="74" fill="#FFFFFF" font-size="16" font-weight="600">Ayoub Rahimi - ZZP</text>
  <text x="24" y="96" fill="#93C5FD" font-size="12">Status: In beoordeling</text>
  <rect x="290" y="62" width="80" height="40" rx="8" fill="#16A34A"/>
  <text x="330" y="78" text-anchor="middle" fill="#FFFFFF" font-size="22" font-weight="bold">80</text>
  <text x="330" y="95" text-anchor="middle" fill="#D1FAE5" font-size="9">gereed</text>
  <rect x="0" y="124" width="390" height="40" fill="#FFFFFF" stroke="#E2E8F0" stroke-width="1"/>
  <text x="16" y="149" fill="#3B82F6" font-size="12" font-weight="600">Overzicht</text>
  <line x1="16" y1="162" x2="72" y2="162" stroke="#3B82F6" stroke-width="2"/>
  <text x="88" y="149" fill="#6B7280" font-size="12">Checklist</text>
  <text x="168" y="149" fill="#6B7280" font-size="12">Documenten</text>
  <text x="278" y="149" fill="#6B7280" font-size="12">AI Chat</text>
  <rect x="16" y="176" width="358" height="64" rx="8" fill="#FFF7ED" stroke="#FED7AA" stroke-width="1"/>
  <text x="32" y="200" fill="#92400E" font-size="13" font-weight="600">Kans gevonden!</text>
  <text x="32" y="220" fill="#92400E" font-size="12">Startersaftrek vervalt na 2026. Claim nu 2.123 euro.</text>
  <rect x="16" y="256" width="358" height="260" rx="8" fill="#FFFFFF" stroke="#E2E8F0" stroke-width="1"/>
  <text x="32" y="282" fill="#111827" font-size="14" font-weight="600">Checklist (4/6)</text>
  <rect x="32" y="290" width="326" height="8" rx="4" fill="#E2E8F0"/>
  <rect x="32" y="290" width="218" height="8" rx="4" fill="#16A34A"/>
  <circle cx="44" cy="322" r="10" fill="#16A34A"/>
  <text x="44" y="326" text-anchor="middle" fill="#FFFFFF" font-size="10">V</text>
  <text x="64" y="326" fill="#374151" font-size="13">Bankafschrift</text>
  <line x1="24" y1="338" x2="366" y2="338" stroke="#F3F4F6" stroke-width="1"/>
  <circle cx="44" cy="358" r="10" fill="#16A34A"/>
  <text x="44" y="362" text-anchor="middle" fill="#FFFFFF" font-size="10">V</text>
  <text x="64" y="362" fill="#374151" font-size="13">Verkoopfacturen</text>
  <line x1="24" y1="374" x2="366" y2="374" stroke="#F3F4F6" stroke-width="1"/>
  <circle cx="44" cy="394" r="10" fill="#E2E8F0"/>
  <text x="64" y="398" fill="#6B7280" font-size="13">BTW-aangiftes</text>
  <text x="350" y="398" text-anchor="end" fill="#EF4444" font-size="11">Ontbreekt</text>
  <line x1="24" y1="410" x2="366" y2="410" stroke="#F3F4F6" stroke-width="1"/>
  <circle cx="44" cy="430" r="10" fill="#E2E8F0"/>
  <text x="64" y="434" fill="#6B7280" font-size="13">Urenstaat</text>
  <text x="350" y="434" text-anchor="end" fill="#EF4444" font-size="11">Ontbreekt</text>
  <rect x="16" y="532" width="358" height="48" rx="10" fill="#3B82F6"/>
  <text x="195" y="562" text-anchor="middle" fill="#FFFFFF" font-size="15" font-weight="600">Document uploaden</text>
  <rect x="16" y="596" width="358" height="48" rx="10" fill="#FFFFFF" stroke="#3B82F6" stroke-width="2"/>
  <text x="195" y="626" text-anchor="middle" fill="#3B82F6" font-size="15" font-weight="600">AI-assistent</text>
  <rect x="16" y="660" width="358" height="80" rx="8" fill="#FFFFFF" stroke="#E2E8F0" stroke-width="1"/>
  <text x="32" y="686" fill="#111827" font-size="13" font-weight="600">Taken (2 open)</text>
  <text x="32" y="710" fill="#F97316" font-size="12">BTW Q1 herinneringsmail versturen</text>
  <text x="32" y="730" fill="#6B7280" font-size="12">Urenstaat opvragen bij klant</text>
  <rect x="0" y="760" width="390" height="84" fill="#FFFFFF" stroke="#E2E8F0" stroke-width="1"/>
  <text x="48" y="800" text-anchor="middle" fill="#9CA3AF" font-size="11">Dashboard</text>
  <text x="146" y="800" text-anchor="middle" fill="#3B82F6" font-size="11">Dossier</text>
  <text x="244" y="800" text-anchor="middle" fill="#9CA3AF" font-size="11">Documenten</text>
  <text x="342" y="800" text-anchor="middle" fill="#9CA3AF" font-size="11">AI Chat</text>
  <text x="195" y="840" text-anchor="middle" fill="#9CA3AF" font-size="11">TaxWijs - Engagement Workspace Mobile</text>
</svg>
